<svg xmlns="http://www.w3.org/2000/svg" viewBox="0 0 128 128">
  <defs>
    <linearGradient id="g" x1="0" y1="0" x2="1" y2="1">
      <stop offset="0" stop-color="#586bd9"/>
      <stop offset="1" stop-color="#8a5be7"/>
    </linearGradient>
  </defs>
  <rect x="4" y="4" width="120" height="120" rx="30" fill="url(#g)"/>
  <path d="M64 100C31 80 22 63 26 45c3-14 16-23 29-20 5 1 9 4 12 8 3-4 7-7 12-8 13-3 26 6 29 20 4 18-5 35-44 55z"
        fill="none" stroke="#ff4f90" stroke-width="8" stroke-linecap="round" stroke-linejoin="round"/>
  <rect x="41" y="48" width="40" height="31" rx="8" fill="#fff"/>
  <path d="M81 57l19-10v33L81 70z" fill="#fff"/>
  <circle cx="58" cy="63.5" r="7" fill="#586bd9"/>
</svg>